<?xml version="1.0" encoding="iso-8859-1"?>
<!-- Generator: Adobe Illustrator 16.2.0, SVG Export Plug-In . SVG Version: 6.00 Build 0)  -->
<!DOCTYPE svg PUBLIC "-//W3C//DTD SVG 1.1//EN" "http://www.w3.org/Graphics/SVG/1.1/DTD/svg11.dtd">
<svg version="1.1" id="&#x421;&#x43B;&#x43E;&#x439;_1"
	 xmlns="http://www.w3.org/2000/svg" xmlns:xlink="http://www.w3.org/1999/xlink" x="0px" y="0px" width="68.259px"
	 height="75.013px" viewBox="0 0 68.259 75.013" style="enable-background:new 0 0 68.259 75.013;" xml:space="preserve">
<g>
	<path d="M49.052,2.964l1.43,4.72c5.346,2.862,15.302,11.427,17.777,20.068C67.393,20.194,59.898,6.985,49.052,2.964"/>
	<path d="M22.719,2.41C12.026,6.146,5,14.902,2.112,22.947c-4.983,13.88-1.448,30.988,13.806,41.638
		C7.777,57.057,0.143,41.787,6.315,25.634c0.641-1.678,1.533-3.498,2.879-4.895c2.102-2.182,5.14-0.847,5.277,1.823
		c0.168,3.258-4.414,5.086-6.733,4.271c0.477,4.054,1.573,8.406,5.929,13.211c-0.415-6.546,2.756-17.049,5.81-22.021
		C14.171,16.726,15.605,8.275,22.719,2.41"/>
	<path d="M24.003,9.837l0.204-3.534l-0.208-0.487l-0.305,2.919l-0.107,0.289l-1.389-2.956l-0.143,0.023l0.939,3.266L22.857,9.72
		c0,0-0.221,0.104-0.306,0.103c-0.084,0-1.509-1.246-1.509-1.246L20.88,8.601l1.349,2.649l-0.474,2.212L24.003,9.837z"/>
	<polygon points="26.32,7.449 26.624,6.539 25.165,8.471 24.95,8.761 	"/>
	<path d="M24.216,41.466h21.408l2.565,8.929h8.144L43.086,7.118l0.206-0.083l2.838-6.147L45.361,0l-7.055,0.622l-0.138,0.143
		l-1.472,1.548l-0.694,0.73l-0.29,0.305L35.47,3.604l-0.356,0.375l1.393-1.054l2.074-1.574l5.501-0.825l0.6,0.776l-3.992,1.049
		l-0.387,0.093l-1.13,0.27l1.559,0.391l0.955,0.244c-21.15,14.894-20.833,44.854-20.833,44.854l-0.127,0.013
		c-0.44-3.324-1.644-18.544,9.402-38.527c-1.263,1.505-2.402,3.023-3.432,4.549c-2.73-0.139-3.741,1.756-3.741,1.756
		c0.001,0.001,0.854,0.899,2.314,0.478c-0.975,1.619-1.833,3.243-2.58,4.864c-1.383,3.109-3.209,8.187-4.037,14.687l-0.22,3.017
		l-0.531-2.66l-1.841-1.024c0.93,25.778,10.248,39.657,10.248,39.657C23.408,68.386,22.138,54.978,24.216,41.466 M43.822,4.061
		c0,0-0.058,0.207-0.198,0.462c0.105,0.477-0.171,0.84-0.507,1.095L41.885,6.6C42.448,4.436,43.822,4.061,43.822,4.061
		 M41.561,7.737c0,0-3.155,3.775-3.77,6.46l1.475,5.132l1.07-1.44c0.051,0.022,0.071,0.031,0.09,0.039
		c0.021,0.008,0.039,0.017,0.093,0.04l-0.595,2.04l1.641-0.953l0.159-0.092l0.809-0.471c0.076,0.077,0.06,0.06,0.136,0.138
		l-0.958,1.212l-0.865,1.095l0.502-0.089l0.953-0.169l0.771-0.136c0.04,0.1,0.03,0.076,0.071,0.175l-2.923,1.594l-0.01,0.013
		l-0.03,0.007l-0.046,0.023l5.31,18.481l-4.774-6.916H25.744C28.429,23.374,34.275,13.458,41.561,7.737"/>
	<path d="M66.361,34.021c-2.482-9.973-9.134-17.041-15.576-20.489c5.76,4.753,9.433,11.946,9.433,19.997
		c0,14.311-11.603,25.913-25.913,25.913c-2.516,0-4.947-0.358-7.247-1.027c0,1.386,0.11,3.149,0.325,4.64
		c5.69,0.773,4.09,5.572,1.506,7.172c3.569,0.615,7.383-2.215,8.518-5.094c14.877-1.797,22.547-13.152,24.552-20.417
		c-0.126,7.015-3.132,16.41-10.27,21.141C62.461,60.86,69.731,47.563,66.361,34.021"/>
</g>
</svg>
