<?xml version="1.0" encoding="iso-8859-1"?>
<!-- Generator: Adobe Illustrator 16.2.0, SVG Export Plug-In . SVG Version: 6.00 Build 0)  -->
<!DOCTYPE svg PUBLIC "-//W3C//DTD SVG 1.1//EN" "http://www.w3.org/Graphics/SVG/1.1/DTD/svg11.dtd">
<svg version="1.1" id="&#x421;&#x43B;&#x43E;&#x439;_1"
	 xmlns="http://www.w3.org/2000/svg" xmlns:xlink="http://www.w3.org/1999/xlink" x="0px" y="0px" width="177.096px"
	 height="67.419px" viewBox="0 0 177.096 67.419" style="enable-background:new 0 0 177.096 67.419;" xml:space="preserve">
<g>
	<path d="M32.093,0.229l-7.441,39.042h-7.127l1.812-9.522H6.992C6.613,31.61,6.08,36.485,6.534,42.243
		c0.403,5.199,1.617,11.118,4.477,16.196c-5.534-5.095-8.362-10.936-9.757-16.196c-2.134-8.035-0.917-14.712-0.834-15.27
		C3.743,9.894,15.822,0,28.66,0C29.527,0,31.225,0.169,32.093,0.229 M23.891,5.756c-8.113,0-14.641,12.977-15.685,18.402h12.241
		L23.891,5.756z M59.079,19.712l0.728-4.046h-2.993l-4.44,23.441h-6.463l4.94-26.045h14.213l-1.27,6.65H59.079z M50.544,3.556
		l-6.779,35.551h-17.04l3.349-17.536c1.389-7.794,6.657-8.509,12.038-8.509l1.764-9.506H50.544z M41.542,15.676
		c-3.081,0-4.344,2.344-4.944,5.668l-2.922,15.164h3.922L41.542,15.676z M139.504,8.717h-6.384l0.968-5.26h6.407L139.504,8.717z
		 M157.579,18.02l-4.028,21.087h-6.56l4.427-23.445h-4.143l-4.451,23.445h-6.639l4.97-26.045h12.48
		C156.601,13.062,157.997,15.06,157.579,18.02 M131.463,3.534l-6.754,35.573h-6.463l6.736-35.573H131.463z M82.724,13.062
		l-2.559,13.092c-1.204,5.863-7.73,6.729-10.933,6.729l-0.712,3.625h9.733l-0.605,2.6H61.757l4.972-26.045H82.724z M76.163,15.662
		h-3.689l-2.669,14.077c3.082,0,3.806-0.905,4.412-3.927L76.163,15.662z M177.097,13.062l-2.598,12.993
		c-1.329,5.86-7.805,6.821-11.004,6.821l-0.675,3.632h9.847l-0.484,2.6h-16.109l4.95-26.045H177.097z M170.57,15.662h-3.777
		l-2.702,14.154c3.203,0,3.84-0.982,4.505-4.004L170.57,15.662z M138.687,13.062l-4.973,26.045h-6.396l4.979-26.045H138.687z
		 M120.646,13.062l-5.075,26.045H99.075l0.12-0.059l1.876-10.096c1.508-7.793,6.1-8.639,11.419-8.639l0.85-4.652h-9.671l0.48-2.6
		H120.646z M111.9,23.301c-3.079,0-4.328,2.151-4.933,5.415l-1.488,7.764l3.896,0.019L111.9,23.301z M100.933,17.958L96.88,39.107
		h-6.337l4.508-23.445h-4.416l-4.5,23.445h-6.416l4.903-26.045h12.204C100.388,13.062,101.537,14.516,100.933,17.958"/>
	<path d="M19.411,55.979l4.427-0.003l-1.266,6.382c-0.639,3.219-2.614,5.06-5.718,5.062c-3.103,0.002-4.348-1.836-3.71-5.056
		l2.076-10.462c0.639-3.22,2.613-5.061,5.717-5.063c3.104-0.002,4.349,1.838,3.71,5.057l-0.387,1.954l-2.99,0.002l0.429-2.155
		c0.284-1.438-0.24-1.983-1.246-1.983c-1.006,0.001-1.747,0.548-2.031,1.986l-2.156,10.864c-0.285,1.438,0.245,1.954,1.251,1.953
		c1.005-0.001,1.741-0.519,2.026-1.955l0.735-3.709l-1.437,0.001L19.411,55.979z"/>
	<path d="M34.978,67.176l-3.19,0.003l0.178-3.649l-3.881,0.002l-1.269,3.65l-2.904,0.002l7.211-20.122l4.628-0.003L34.978,67.176z
		 M29.03,60.801l3.046-0.003l0.496-10.174L29.03,60.801z"/>
	<polygon points="45.419,61.335 50.408,47.049 54.806,47.045 50.815,67.165 47.825,67.168 50.688,52.738 45.641,67.169 
		42.652,67.171 43.117,52.944 40.295,67.173 37.536,67.175 41.527,47.055 45.925,47.052 	"/>
	<polygon points="59.704,55.521 64.044,55.518 63.474,58.392 59.134,58.395 57.965,64.287 63.426,64.283 62.856,67.157 
		54.233,67.163 58.225,47.043 66.848,47.037 66.277,49.911 60.816,49.916 	"/>
	<path d="M82.163,59.643l-0.53,2.674c-0.638,3.22-2.614,5.06-5.717,5.062c-3.105,0.002-4.349-1.836-3.71-5.056l2.075-10.462
		c0.639-3.22,2.613-5.061,5.717-5.063c3.104-0.003,4.35,1.836,3.71,5.056l-0.387,1.954l-2.989,0.002l0.427-2.155
		c0.286-1.438-0.239-1.983-1.244-1.982c-1.006,0-1.747,0.547-2.033,1.985l-2.155,10.864c-0.285,1.437,0.245,1.954,1.251,1.953
		s1.741-0.519,2.026-1.956l0.571-2.874L82.163,59.643z"/>
	<polygon points="86.883,67.141 83.721,67.143 87.713,47.022 90.874,47.021 89.164,55.644 92.757,55.641 94.467,47.018 
		97.686,47.016 93.695,67.136 90.476,67.138 92.186,58.515 88.593,58.518 	"/>
	<path d="M107.346,67.126l-3.189,0.002l0.177-3.648l-3.88,0.002l-1.271,3.65l-2.902,0.002l7.21-20.122l4.628-0.004L107.346,67.126z
		 M101.398,60.75l3.046-0.002l0.495-10.174L101.398,60.75z"/>
	<polygon points="115.64,52.55 112.748,67.122 109.903,67.124 113.895,47.004 117.861,47.002 118.721,59.043 121.109,46.999 
		123.926,46.997 119.934,67.117 116.687,67.12 	"/>
	<path d="M130.29,55.901l4.427-0.003l-1.266,6.382c-0.639,3.219-2.613,5.06-5.718,5.063c-3.104,0.001-4.349-1.837-3.71-5.056
		l2.077-10.463c0.637-3.22,2.612-5.061,5.716-5.063c3.104-0.003,4.349,1.837,3.711,5.056l-0.388,1.955l-2.99,0.002l0.429-2.156
		c0.284-1.438-0.24-1.983-1.246-1.982s-1.747,0.547-2.031,1.985l-2.155,10.864c-0.285,1.438,0.245,1.954,1.251,1.953
		c1.005-0.001,1.74-0.518,2.025-1.955l0.736-3.709l-1.438,0.001L130.29,55.901z"/>
	<polygon points="141.125,55.464 145.465,55.461 144.896,58.335 140.555,58.338 139.386,64.23 144.847,64.227 144.277,67.101 
		135.654,67.107 139.646,46.986 148.27,46.98 147.698,49.854 142.237,49.859 	"/>
	<path d="M153.962,67.094c-0.069-0.518-0.122-0.834,0.203-2.472l0.628-3.162c0.371-1.868-0.126-2.558-1.563-2.557l-1.093,0.001
		l-1.625,8.192l-3.161,0.002l3.991-20.12l4.771-0.003c3.277-0.003,4.384,1.521,3.768,4.624l-0.313,1.581
		c-0.411,2.069-1.34,3.421-2.879,4.083c1.45,0.659,1.665,2.183,1.248,4.281l-0.615,3.104c-0.194,0.977-0.308,1.695-0.14,2.442
		L153.962,67.094z M153.935,49.851l-1.226,6.18l1.234-0.001c1.18-0.001,2-0.519,2.32-2.129l0.393-1.982
		c0.284-1.438-0.077-2.069-1.199-2.068L153.935,49.851z"/>
	<path d="M168.317,46.736c3.074-0.002,4.291,1.837,3.651,5.056l-0.125,0.632l-2.987,0.003l0.163-0.833
		c0.285-1.438-0.181-1.984-1.187-1.983s-1.689,0.547-1.975,1.985c-0.82,4.139,5.204,4.91,4.063,10.659
		c-0.638,3.219-2.613,5.061-5.717,5.063c-3.104,0.002-4.348-1.837-3.71-5.056l0.246-1.236l2.989-0.002l-0.286,1.438
		c-0.284,1.437,0.245,1.953,1.251,1.952c1.006,0,1.741-0.518,2.025-1.955c0.822-4.139-5.204-4.909-4.063-10.659
		C163.296,48.579,165.241,46.738,168.317,46.736"/>
</g>
</svg>
