<?xml version="1.0" encoding="iso-8859-1"?>
<!-- Generator: Adobe Illustrator 16.2.0, SVG Export Plug-In . SVG Version: 6.00 Build 0)  -->
<!DOCTYPE svg PUBLIC "-//W3C//DTD SVG 1.1//EN" "http://www.w3.org/Graphics/SVG/1.1/DTD/svg11.dtd">
<svg version="1.1" id="&#x421;&#x43B;&#x43E;&#x439;_1"
	 xmlns="http://www.w3.org/2000/svg" xmlns:xlink="http://www.w3.org/1999/xlink" x="0px" y="0px" width="30px" height="30px"
	 viewBox="0 0 30 30" style="enable-background:new 0 0 30 30;" xml:space="preserve">
<g>
	<path style="fill-rule:evenodd;clip-rule:evenodd;" d="M27.265,8.673c-0.294-1.131-1.161-2.022-2.263-2.324
		C23.006,5.8,15,5.8,15,5.8S6.995,5.8,4.998,6.35C3.897,6.651,3.03,7.542,2.735,8.673C2.201,10.724,2.201,15,2.201,15
		s0,4.276,0.534,6.327c0.295,1.131,1.162,2.021,2.263,2.323C6.995,24.2,15,24.2,15,24.2s8.006,0,10.002-0.55
		c1.102-0.302,1.969-1.192,2.263-2.323C27.8,19.276,27.8,15,27.8,15S27.8,10.724,27.265,8.673 M12.6,19.4v-8l6.4,4L12.6,19.4z"/>
</g>
</svg>
